<svg xmlns="http://www.w3.org/2000/svg" width="1000" height="1000" viewBox="0 0 1000 1000">
<rect width="1000" height="1000" fill="#a6977a"/>
<path d="M0 0H1000V332L933 363L865 329L659 364L535 393L403 452L269 409L158 379L0 398Z" fill="#b5b299"/>
<path d="M0 401L166 379L271 412L405 453L567 409L588 461L556 699L366 735L0 717Z" fill="#94867a"/>
<path d="M623 348L831 337L1000 330V663L802 667L627 651L560 598L575 441Z" fill="#81817d"/>
<path d="M0 728L211 683L364 730L542 677L583 1000H0Z" fill="#657d7d"/>
<path d="M581 698L672 666L837 666L1000 643V1000H583L568 847Z" fill="#758366"/>
<path d="M56 157 L125 170 L174 159 L216 132" fill="none" stroke="#dcc69d" stroke-width="20" stroke-linecap="round" stroke-linejoin="round"/><path d="M216 132 L258 140 L295 151 L335 145 L378 141" fill="none" stroke="#dcc69d" stroke-width="20" stroke-linecap="round" stroke-linejoin="round"/><path d="M378 141 L440 163 L490 198 L540 207 L575 234" fill="none" stroke="#dcc69d" stroke-width="20" stroke-linecap="round" stroke-linejoin="round"/><path d="M330 320 L314 353 L327 380 L336 408" fill="none" stroke="#dcc69d" stroke-width="20" stroke-linecap="round" stroke-linejoin="round"/><path d="M566 306 L635 289 L692 264 L740 225 L784 195 L816 144" fill="none" stroke="#dcc69d" stroke-width="20" stroke-linecap="round" stroke-linejoin="round"/><path d="M816 144 L841 182 L844 227 L839 272" fill="none" stroke="#dcc69d" stroke-width="20" stroke-linecap="round" stroke-linejoin="round"/><path d="M105 470 L118 505 L171 514 L217 548 L250 564 L289 585" fill="none" stroke="#dcc69d" stroke-width="20" stroke-linecap="round" stroke-linejoin="round"/><path d="M105 470 L80 505 L61 555 L62 610 L89 659" fill="none" stroke="#dcc69d" stroke-width="20" stroke-linecap="round" stroke-linejoin="round"/><path d="M289 585 L248 613 L191 624 L137 651 L89 659" fill="none" stroke="#dcc69d" stroke-width="20" stroke-linecap="round" stroke-linejoin="round"/><path d="M289 585 L340 577 L379 560 L427 546 L456 532" fill="none" stroke="#dcc69d" stroke-width="20" stroke-linecap="round" stroke-linejoin="round"/><path d="M456 532 L487 571 L473 604 L489 625 L503 644" fill="none" stroke="#dcc69d" stroke-width="20" stroke-linecap="round" stroke-linejoin="round"/><path d="M456 532 L487 518 L518 504 L543 491 L576 478" fill="none" stroke="#dcc69d" stroke-width="20" stroke-linecap="round" stroke-linejoin="round"/><path d="M576 478 L592 508 L613 533 L659 538 L693 538" fill="none" stroke="#dcc69d" stroke-width="20" stroke-linecap="round" stroke-linejoin="round"/><path d="M803 475 L842 479 L870 492 L917 466" fill="none" stroke="#dcc69d" stroke-width="20" stroke-linecap="round" stroke-linejoin="round"/><path d="M170 715 L171 763 L155 807 L172 848 L180 887" fill="none" stroke="#dcc69d" stroke-width="20" stroke-linecap="round" stroke-linejoin="round"/><path d="M170 715 L227 717 L263 712 L301 710 L334 699" fill="none" stroke="#dcc69d" stroke-width="20" stroke-linecap="round" stroke-linejoin="round"/><path d="M170 715 L215 757 L248 764 L274 791 L296 803" fill="none" stroke="#dcc69d" stroke-width="20" stroke-linecap="round" stroke-linejoin="round"/><path d="M334 699 L369 743 L405 779 L411 833 L441 861 L465 888" fill="none" stroke="#dcc69d" stroke-width="20" stroke-linecap="round" stroke-linejoin="round"/><path d="M465 888 L412 876 L387 854 L362 834 L333 814 L296 803" fill="none" stroke="#dcc69d" stroke-width="20" stroke-linecap="round" stroke-linejoin="round"/><path d="M674 762 L727 756 L784 751 L821 739 L861 745" fill="none" stroke="#dcc69d" stroke-width="20" stroke-linecap="round" stroke-linejoin="round"/><path d="M861 745 L908 791 L917 844 L896 870 L882 892" fill="none" stroke="#dcc69d" stroke-width="20" stroke-linecap="round" stroke-linejoin="round"/><path d="M861 745 L845 794 L800 812 L771 842 L739 852" fill="none" stroke="#dcc69d" stroke-width="20" stroke-linecap="round" stroke-linejoin="round"/><path d="M216 132 L198 179 L199 208 L180 231 L159 276" fill="none" stroke="#dcc69d" stroke-width="20" stroke-linecap="round" stroke-linejoin="round"/><path d="M159 276 L201 291 L240 315 L289 325 L330 320" fill="none" stroke="#dcc69d" stroke-width="20" stroke-linecap="round" stroke-linejoin="round"/><path d="M378 141 L390 201 L372 230 L341 264 L330 292 L330 320" fill="none" stroke="#dcc69d" stroke-width="20" stroke-linecap="round" stroke-linejoin="round"/><path d="M330 320 L385 340 L429 340 L486 324 L535 316 L566 306" fill="none" stroke="#dcc69d" stroke-width="20" stroke-linecap="round" stroke-linejoin="round"/><path d="M706 385 L719 429 L761 449 L803 475" fill="none" stroke="#dcc69d" stroke-width="20" stroke-linecap="round" stroke-linejoin="round"/><path d="M576 478 L630 472 L678 466 L736 468 L803 475" fill="none" stroke="#dcc69d" stroke-width="20" stroke-linecap="round" stroke-linejoin="round"/>
<ellipse cx="56" cy="157" rx="51" ry="25" fill="#d9c9a8" stroke="#776e5a" stroke-width="1"/><ellipse cx="159" cy="276" rx="51" ry="25" fill="#d9c9a8" stroke="#776e5a" stroke-width="1"/><ellipse cx="216" cy="132" rx="51" ry="25" fill="#d9c9a8" stroke="#776e5a" stroke-width="1"/><ellipse cx="330" cy="320" rx="51" ry="25" fill="#d9c9a8" stroke="#776e5a" stroke-width="1"/><ellipse cx="378" cy="141" rx="51" ry="25" fill="#d9c9a8" stroke="#776e5a" stroke-width="1"/><ellipse cx="575" cy="234" rx="51" ry="25" fill="#d9c9a8" stroke="#776e5a" stroke-width="1"/><ellipse cx="566" cy="306" rx="51" ry="25" fill="#d9c9a8" stroke="#776e5a" stroke-width="1"/><ellipse cx="816" cy="144" rx="51" ry="25" fill="#d9c9a8" stroke="#776e5a" stroke-width="1"/><ellipse cx="917" cy="466" rx="51" ry="25" fill="#d9c9a8" stroke="#776e5a" stroke-width="1"/><ellipse cx="706" cy="385" rx="51" ry="25" fill="#d9c9a8" stroke="#776e5a" stroke-width="1"/><ellipse cx="456" cy="532" rx="51" ry="25" fill="#d9c9a8" stroke="#776e5a" stroke-width="1"/><ellipse cx="503" cy="644" rx="51" ry="25" fill="#d9c9a8" stroke="#776e5a" stroke-width="1"/><ellipse cx="289" cy="585" rx="51" ry="25" fill="#d9c9a8" stroke="#776e5a" stroke-width="1"/><ellipse cx="105" cy="470" rx="51" ry="25" fill="#d9c9a8" stroke="#776e5a" stroke-width="1"/><ellipse cx="170" cy="715" rx="51" ry="25" fill="#d9c9a8" stroke="#776e5a" stroke-width="1"/><ellipse cx="180" cy="887" rx="51" ry="25" fill="#d9c9a8" stroke="#776e5a" stroke-width="1"/><ellipse cx="465" cy="888" rx="51" ry="25" fill="#d9c9a8" stroke="#776e5a" stroke-width="1"/><ellipse cx="674" cy="762" rx="51" ry="25" fill="#d9c9a8" stroke="#776e5a" stroke-width="1"/><ellipse cx="861" cy="745" rx="51" ry="25" fill="#d9c9a8" stroke="#776e5a" stroke-width="1"/><ellipse cx="882" cy="892" rx="51" ry="25" fill="#d9c9a8" stroke="#776e5a" stroke-width="1"/><ellipse cx="839" cy="272" rx="51" ry="25" fill="#d9c9a8" stroke="#776e5a" stroke-width="1"/><ellipse cx="803" cy="475" rx="51" ry="25" fill="#d9c9a8" stroke="#776e5a" stroke-width="1"/><ellipse cx="336" cy="408" rx="51" ry="25" fill="#d9c9a8" stroke="#776e5a" stroke-width="1"/><ellipse cx="334" cy="699" rx="51" ry="25" fill="#d9c9a8" stroke="#776e5a" stroke-width="1"/><ellipse cx="576" cy="478" rx="51" ry="25" fill="#d9c9a8" stroke="#776e5a" stroke-width="1"/><ellipse cx="89" cy="659" rx="51" ry="25" fill="#d9c9a8" stroke="#776e5a" stroke-width="1"/><ellipse cx="693" cy="538" rx="51" ry="25" fill="#d9c9a8" stroke="#776e5a" stroke-width="1"/><ellipse cx="296" cy="803" rx="51" ry="25" fill="#d9c9a8" stroke="#776e5a" stroke-width="1"/><ellipse cx="739" cy="852" rx="51" ry="25" fill="#d9c9a8" stroke="#776e5a" stroke-width="1"/>
</svg>